<svg id="Layer_1" data-name="Layer 1" xmlns="http://www.w3.org/2000/svg" viewBox="0 0 1024 1024"><title>stymiedlogotext</title><rect width="1024" height="1024" style="fill:#2e6072"/><g style="isolation:isolate"><g style="isolation:isolate"><path d="M103.77,873.1v-2.45a2.2,2.2,0,0,1,2.45-2.45h15.12c1.58,0,2.45.72,2.45,1.87v2c0,7.34,7.34,13.68,19,13.68,10.94,0,15-5.47,15-11.23,0-7.34-7.34-9.94-21-15-15-5.18-32.26-12-32.26-31,0-17.71,14.54-28.51,35.14-28.51,22.18,0,37.87,12.38,37.87,31v1.44a2.2,2.2,0,0,1-2.45,2.45H159.93c-1.58,0-2.45-.58-2.45-1.44v-1.44c0-7.49-6.48-14.54-18.58-14.54-9.22,0-14.4,4-14.4,10.8,0,7.49,6.34,10.08,22.32,15.7,13.1,4.75,31.25,10.37,31.25,30,0,17.57-14.26,29.23-36.86,29.23S103.77,891.38,103.77,873.1Z" transform="translate(0.64)" style="fill:#f18b8e"/><path d="M231.07,844.3h-13a.76.76,0,0,0-.86.86V875c0,6.19,2.45,9.22,8.21,9.22h4a2.2,2.2,0,0,1,2.45,2.45V899a2.46,2.46,0,0,1-2.45,2.59c-2.74.14-5.33.29-7.92.29-14.69,0-23.76-3.46-23.9-19V845.16a.76.76,0,0,0-.86-.86h-7.34a2.2,2.2,0,0,1-2.45-2.45V830.47a2.2,2.2,0,0,1,2.45-2.45h7.34a.76.76,0,0,0,.86-.86V810.89a2.2,2.2,0,0,1,2.45-2.45h14.69a2.2,2.2,0,0,1,2.45,2.45v16.27a.76.76,0,0,0,.86.86h13a2.2,2.2,0,0,1,2.45,2.45v11.38A2.2,2.2,0,0,1,231.07,844.3Z" transform="translate(0.64)" style="fill:#f18b8e"/><path d="M244.31,928.25V916.44c0-1.58.29-2.45.86-2.45H246c11.38,0,16-1.87,18.29-11.38a1.58,1.58,0,0,0,0-1.15l-23.18-70.7c-.58-1.58.29-2.74,2-2.74h16.56a2.65,2.65,0,0,1,2.74,2L274.27,873a.58.58,0,0,0,1.15,0l11.23-42.77a2.66,2.66,0,0,1,2.74-2.16h16.56c1.73,0,2.59,1.15,2,2.74l-24.62,74c-6.62,19.29-12,25.92-37,25.92h-1C244.75,930.7,244.31,929.83,244.31,928.25Z" transform="translate(0.64)" style="fill:#f18b8e"/><path d="M424.45,852.65v46.94A2.2,2.2,0,0,1,422,902H406.6a2.2,2.2,0,0,1-2.45-2.45V857.11c0-7.78-4.32-12.82-11.09-12.82s-11.38,4.9-11.38,12.67v42.62a2.2,2.2,0,0,1-2.45,2.45H364a2.2,2.2,0,0,1-2.45-2.45V857.11c0-7.78-4.61-12.82-11.38-12.82-6.19,0-10.51,3.89-11.38,10.37v44.93a2.2,2.2,0,0,1-2.45,2.45H320.92a2.2,2.2,0,0,1-2.45-2.45V830.47a2.2,2.2,0,0,1,2.45-2.45h15.41a2.2,2.2,0,0,1,2.45,2.45v4.61c0,.72.58,1,1,.29,4-5.76,10.37-8.5,18.14-8.5,9.65,0,16.85,4.18,20.74,11.52.29.72.86.58,1.15,0,4.46-7.92,12.1-11.52,20.74-11.52C415.53,826.87,424.45,836.38,424.45,852.65Z" transform="translate(0.64)" style="fill:#f18b8e"/><path d="M437.56,808.87c0-7.2,5-12.1,12.38-12.1s12.38,4.9,12.38,12.1-4.9,12.1-12.38,12.1S437.56,816.07,437.56,808.87Zm2.3,90.72V830.47a2.2,2.2,0,0,1,2.45-2.45h15.41a2.2,2.2,0,0,1,2.45,2.45v69.12a2.2,2.2,0,0,1-2.45,2.45H442.31A2.2,2.2,0,0,1,439.86,899.59Z" transform="translate(0.64)" style="fill:#f18b8e"/><path d="M526.41,879.43c1.15-1.3,2.3-1.44,3.46-.29l8.21,7.92a2.36,2.36,0,0,1,.29,3.46c-6.19,7.78-16.56,12.67-28.37,12.67-18.14,0-29.81-10.08-33.7-25.34a50.15,50.15,0,0,1-1.73-13.39,52.17,52.17,0,0,1,1.58-14.11c3.89-14.11,16.13-23.62,32.25-23.62,19.44,0,30,12.38,33.12,31.82.43,3.17.72,6.77.86,10.51a2.2,2.2,0,0,1-2.45,2.45H495.73a.76.76,0,0,0-.86.86,23.08,23.08,0,0,0,1,4.46c2,5.9,7.92,9.22,16,9.22C518.34,885.77,523.24,883.32,526.41,879.43Zm-30.24-26.64a18.86,18.86,0,0,0-.86,3.6c-.14.58.14.86.72.86H520.5c.58,0,.86-.29.72-.86a14.15,14.15,0,0,0-.58-3c-1.73-5.47-5.9-9.07-12.53-9.07C501.78,844.3,497.75,847.61,496.17,852.79Z" transform="translate(0.64)" style="fill:#f18b8e"/><path d="M602,801.24h15.41a2.2,2.2,0,0,1,2.45,2.45v95.9a2.2,2.2,0,0,1-2.45,2.45H602a2.2,2.2,0,0,1-2.45-2.45V895.7c0-.72-.58-.86-1-.29-3.6,4.75-8.78,7.78-16.42,7.78-13.1,0-23.9-8.5-27.79-21.17a52.29,52.29,0,0,1-2.45-17.28c0-6.34.72-12.53,2.74-17.86,4.18-12.1,14.26-20.16,27.5-20.16,7.49,0,12.82,2.59,16.42,7.06.43.58,1,.29,1-.43V803.69A2.2,2.2,0,0,1,602,801.24ZM599.41,865c0-6.19-1-11.23-3-14.83-2.3-3.6-5.47-5.62-9.65-5.62a11.24,11.24,0,0,0-10.08,5.47c-2.16,3.6-3.46,8.78-3.46,15.12,0,5.76,1.15,10.66,3,14.11a11.5,11.5,0,0,0,10.51,6.19c4.32,0,7.63-2.3,9.79-6.19C598.4,875.83,599.41,870.94,599.41,865Z" transform="translate(0.64)" style="fill:#f18b8e"/></g><g style="isolation:isolate"><path d="M669.83,867.77V835.51c0-21.31,15-35.42,37.44-35.42s37.15,14.26,37.15,32.54v.29a2.2,2.2,0,0,1-2.45,2.45H726.56c-1.58,0-2.45-.58-2.45-1.15v-1c0-8.64-6.34-15.7-16.85-15.7s-17.14,7.06-17.14,17.42v33.41c0,10.37,7.63,17.42,17.86,17.42,9.94,0,16.42-5.47,16.42-15v-6.34a.83.83,0,0,0-.86-.86H708.28a2.2,2.2,0,0,1-2.45-2.45V849.34a2.2,2.2,0,0,1,2.45-2.45H742a2.2,2.2,0,0,1,2.45,2.45v18.29c0,22.17-14.83,35.57-37.15,35.57S669.83,888.94,669.83,867.77Z" transform="translate(0.64)" style="fill:#f18b8e"/></g><g style="isolation:isolate"><path d="M758.53,879.58a52.48,52.48,0,0,1-2-14.69,50.12,50.12,0,0,1,2.16-15.26c4.32-14.11,16.27-22.75,32.69-22.75,15.84,0,27.5,8.64,32,22.61a50.49,50.49,0,0,1,2.16,15.12,58.28,58.28,0,0,1-1.87,14.54c-4.32,14.83-16.27,24-32.4,24C774.8,903.19,762.71,894.12,758.53,879.58ZM803.89,875A36.63,36.63,0,0,0,805,864.89a40.86,40.86,0,0,0-1.15-10.22c-1.87-6.48-6.34-10.37-13-10.37s-10.94,4-12.82,10.37a45.33,45.33,0,0,0,0,20.3c1.87,6.62,6.34,10.8,13.1,10.8C797.56,885.77,802,881.59,803.89,875Z" transform="translate(0.64)" style="fill:#f18b8e"/><path d="M838.88,899.59v-95.9a2.2,2.2,0,0,1,2.45-2.45h15.41a2.2,2.2,0,0,1,2.45,2.45v95.9a2.2,2.2,0,0,1-2.45,2.45H841.33A2.2,2.2,0,0,1,838.88,899.59Z" transform="translate(0.64)" style="fill:#f18b8e"/><path d="M918.37,830.33v12.24a2.2,2.2,0,0,1-2.45,2.45h-13.1a.76.76,0,0,0-.86.86v53.71A2.2,2.2,0,0,1,899.5,902H884.1a2.2,2.2,0,0,1-2.45-2.45V845.88a.76.76,0,0,0-.86-.86h-7.63a2.2,2.2,0,0,1-2.45-2.45V830.33a2.2,2.2,0,0,1,2.45-2.45h7.63a.83.83,0,0,0,.86-.86v-3c0-17.57,7.34-23.33,28.51-22.75h4.75a2.2,2.2,0,0,1,2.45,2.45v10.22a2.2,2.2,0,0,1-2.45,2.45h-4c-6.77.14-8.93,2.3-8.93,9.22V827a.76.76,0,0,0,.86.86h13.1A2.2,2.2,0,0,1,918.37,830.33Z" transform="translate(0.64)" style="fill:#f18b8e"/></g></g><g style="isolation:isolate"><path d="M127.14,474.85V463.34c0-7.45,4.06-11.51,11.51-11.51h71.09c7.45,0,11.51,3.38,11.51,8.8v9.48c0,34.53,34.53,64.32,89.37,64.32,51.45,0,70.41-25.73,70.41-52.81,0-34.53-34.53-46.71-98.85-70.41C211.77,386.83,130.52,355,130.52,265.64c0-83.28,68.38-134.05,165.2-134.05,104.26,0,178.06,58.22,178.06,145.56v6.77c0,7.45-4.06,11.51-11.51,11.51H391.18c-7.45,0-11.51-2.71-11.51-6.77v-6.77c0-35.21-30.47-68.38-87.34-68.38-43.33,0-67.7,19-67.7,50.78,0,35.21,29.79,47.39,104.94,73.8,61.61,22.34,146.92,48.75,146.92,140.82,0,82.6-67,137.44-173.32,137.44S127.14,560.83,127.14,474.85Z" transform="translate(0.64)" style="fill:#f18b8e"/><path d="M534,449.8V298.14c0-100.2,70.41-166.55,176-166.55,104.94,0,174.67,67,174.67,153V286c0,7.45-4.06,11.51-11.51,11.51H800.79c-7.45,0-11.51-2.71-11.51-5.42v-4.74c0-40.62-29.79-73.8-79.21-73.8-48.75,0-80.57,33.17-80.57,81.92V452.5c0,48.75,35.88,81.92,84,81.92,46.71,0,77.18-25.73,77.18-70.41V434.23a3.9,3.9,0,0,0-4.06-4.06H714.8c-7.45,0-11.51-4.06-11.51-11.51V363.14c0-7.45,4.06-11.51,11.51-11.51H873.23c7.45,0,11.51,4.06,11.51,11.51v86c0,104.26-69.73,167.23-174.67,167.23C604.45,616.35,534,549.32,534,449.8Z" transform="translate(0.64)" style="fill:#f18b8e"/></g><path d="M108,714.34H881.85c10.47,0,21,.25,31.46,0h1.37c9.65,0,9.67-15,0-15H140.87c-10.47,0-21-.25-31.46,0H108c-9.65,0-9.67,15,0,15Z" transform="translate(0.64)" style="fill:#f18b8e"/></svg>