<svg id="Layer_1" data-name="Layer 1" xmlns="http://www.w3.org/2000/svg" viewBox="0 0 1026.27 1024"><title>stymiedlogowrittenout</title><rect width="1026.27" height="1024" style="fill:#2e6072"/><path d="M61.49,557.83a35.22,35.22,0,0,1-15.71-12.57,33,33,0,0,1-5.54-18.94v-3.14a2,2,0,0,1,2-2h23a2,2,0,0,1,2,2v2q0,5.46,5.46,9.51t14.72,4.05q7.28,0,10.75-3.14a9.56,9.56,0,0,0,3.47-7.28,7.28,7.28,0,0,0-2.07-5.38A16.5,16.5,0,0,0,94,519.46q-3.47-1.4-10.75-3.89a9.72,9.72,0,0,0-2-.75,13.85,13.85,0,0,1-1.82-.58,127.48,127.48,0,0,1-18.69-7.53,40.28,40.28,0,0,1-13.56-11.25q-5.62-7.19-5.62-17.78a30.53,30.53,0,0,1,5.38-17.95,34.3,34.3,0,0,1,15-11.83,54.26,54.26,0,0,1,21.67-4.14,54.71,54.71,0,0,1,22.91,4.63,37.91,37.91,0,0,1,16,13.07,33.38,33.38,0,0,1,5.79,19.35v2.32a2,2,0,0,1-2,2h-23a2,2,0,0,1-2-2V482q0-5.79-5.13-10.25t-13.73-4.47q-6.45,0-10.09,2.65a8.67,8.67,0,0,0-3.64,7.44,8.33,8.33,0,0,0,2.32,6,21.82,21.82,0,0,0,7.19,4.47q4.88,2.07,15,5.38,11.58,4,18,6.95a36.08,36.08,0,0,1,12.16,9.68q5.71,6.7,5.71,17.62A31.41,31.41,0,0,1,123.6,546a35,35,0,0,1-15.3,12q-9.84,4.22-22.91,4.22Q71.66,562.22,61.49,557.83Z" transform="translate(2.27 1.72)" style="fill:#f18b8e"/><path d="M193.48,496.8a1.91,1.91,0,0,1-1.41.58H177a.73.73,0,0,0-.83.83v30.1q0,9.43,7.61,9.43h6.12a2,2,0,0,1,2,2v19.19a2,2,0,0,1-2,2.15q-7.94.33-11.58.33-14.39,0-21.34-4.55t-7.11-17.28V498.2a.73.73,0,0,0-.83-.83h-9.43a2,2,0,0,1-2-2v-18a2,2,0,0,1,2-2h9.43a.73.73,0,0,0,.83-.83v-20a2,2,0,0,1,2-2h22.33a2,2,0,0,1,2,2v20a.73.73,0,0,0,.83.83h15.05a2,2,0,0,1,2,2v18A1.91,1.91,0,0,1,193.48,496.8Z" transform="translate(2.27 1.72)" style="fill:#f18b8e"/><path d="M205.14,593.23a2.78,2.78,0,0,1-.33-1.41V573.3q0-2,1.82-2,10.58,0,15.22-2t5.62-7.94a1.51,1.51,0,0,0,0-1l-26.63-82.87a1.82,1.82,0,0,1-.17-.83q0-1.49,1.82-1.49h25a2.08,2.08,0,0,1,2.15,1.65l11.41,49c.11.44.27.66.5.66s.39-.22.5-.66l11.41-49a2.08,2.08,0,0,1,2.15-1.65h24.48a1.86,1.86,0,0,1,1.49.58,1.82,1.82,0,0,1,.17,1.74l-28,85q-4.14,12.4-8.68,18.77t-13.23,9.43q-8.68,3.06-24.73,3.06H206A1,1,0,0,1,205.14,593.23Z" transform="translate(2.27 1.72)" style="fill:#f18b8e"/><path d="M409.58,482q7.28,7.94,7.28,22.33v54.58a2,2,0,0,1-2,2H391.55a2,2,0,0,1-2-2V510.28a14.09,14.09,0,0,0-2.89-9.18,9.42,9.42,0,0,0-7.69-3.56,10,10,0,0,0-7.86,3.47q-3.06,3.47-3.06,9.26v48.63a2,2,0,0,1-2,2H342.59a2,2,0,0,1-2-2V510.28a13.58,13.58,0,0,0-3.06-9.18,9.9,9.9,0,0,0-7.86-3.56,10.42,10.42,0,0,0-7.44,2.81,12.26,12.26,0,0,0-3.64,7.44v51.11a2,2,0,0,1-2,2H293.13a2,2,0,0,1-2-2V477.36a2,2,0,0,1,2-2h23.49a2,2,0,0,1,2,2v7.44c0,.44.11.69.33.74s.44-.14.66-.58q6.45-10.92,21.17-10.92a28.55,28.55,0,0,1,14.56,3.64,23.61,23.61,0,0,1,9.59,10.59q.5,1,1-.17a23.86,23.86,0,0,1,9.51-10.59,27.53,27.53,0,0,1,14-3.47Q402.3,474.06,409.58,482Z" transform="translate(2.27 1.72)" style="fill:#f18b8e"/><path d="M434,463.72A15.32,15.32,0,0,1,434,443a15.45,15.45,0,0,1,20.68,0A14.65,14.65,0,0,1,434,463.72Zm-3,96.6a1.9,1.9,0,0,1-.58-1.41V477.36a2,2,0,0,1,2-2h23.49a2,2,0,0,1,2,2v81.54a2,2,0,0,1-2,2H432.4A1.9,1.9,0,0,1,431,560.31Z" transform="translate(2.27 1.72)" style="fill:#f18b8e"/><path d="M551.82,523.68a1.93,1.93,0,0,1-2.15,2H499.23a1.09,1.09,0,0,0-.66.25.42.42,0,0,0-.17.58,22.39,22.39,0,0,0,1.65,4.8,14.69,14.69,0,0,0,6,5.62,20.25,20.25,0,0,0,9.76,2.15q10.42,0,16.38-6.78a1.89,1.89,0,0,1,1.49-.83,1.58,1.58,0,0,1,1.32.66l12.74,14.56a1.58,1.58,0,0,1,.66,1.32,1.91,1.91,0,0,1-.66,1.32,37.65,37.65,0,0,1-14.31,9.59,51,51,0,0,1-18.61,3.31q-15.05,0-25.55-6.53a36.84,36.84,0,0,1-15.13-18.28q-3.47-8.27-3.47-20.67a51.93,51.93,0,0,1,2.65-16.54,38.77,38.77,0,0,1,14.14-19.27q9.84-7,23.4-7a39.94,39.94,0,0,1,19.52,4.71,38.3,38.3,0,0,1,14,13.07,48.4,48.4,0,0,1,7,18.94A66.34,66.34,0,0,1,551.82,523.68Zm-52.43-18a14.29,14.29,0,0,0-.83,3.47c-.22.55,0,.83.66.83h23.49a.58.58,0,0,0,.66-.66,14,14,0,0,0-4.88-9.59,13.08,13.08,0,0,0-7.69-2.15Q502.2,497.54,499.39,505.65Z" transform="translate(2.27 1.72)" style="fill:#f18b8e"/><path d="M616.58,445.69a1.91,1.91,0,0,1,1.41-.58h23.49a2,2,0,0,1,2,2V558.91a2,2,0,0,1-2,2H618a2,2,0,0,1-2-2v-5.46c0-.33-.11-.52-.33-.58a.69.69,0,0,0-.66.25q-6.62,9.1-19,9.1a31.48,31.48,0,0,1-19.93-6.78,36.44,36.44,0,0,1-12.32-18.53,67.22,67.22,0,0,1-2.65-19.19,59,59,0,0,1,3.47-20.84,35.77,35.77,0,0,1,12.16-16.54q8.35-6.28,20.26-6.29t18,7.77c.22.33.44.44.66.33a.67.67,0,0,0,.33-.66v-34.4A1.91,1.91,0,0,1,616.58,445.69ZM616,518.22q0-9.59-3.14-14.89-3.47-5.79-9.76-5.79a10.82,10.82,0,0,0-10.09,6q-3.31,5.63-3.31,14.72,0,8.77,3,14.22a11.21,11.21,0,0,0,10.42,6.29q6.61,0,10.09-6.45Q616,527,616,518.22Z" transform="translate(2.27 1.72)" style="fill:#f18b8e"/><path d="M711.35,556.92A38.15,38.15,0,0,1,695.8,542a43.5,43.5,0,0,1-5.54-22.16V486a43.06,43.06,0,0,1,5.54-22.08,38.33,38.33,0,0,1,15.55-14.8q10-5.29,23.24-5.29a51.12,51.12,0,0,1,23.16,5,38.25,38.25,0,0,1,15.63,13.81A35.51,35.51,0,0,1,778.92,482v.83a2,2,0,0,1-2,2H753.45a2,2,0,0,1-2-2,15,15,0,0,0-4.55-11q-4.55-4.55-12.32-4.55-7.61,0-12.24,5t-4.63,12.9V520.7a17.15,17.15,0,0,0,5.13,12.9,17.8,17.8,0,0,0,12.9,5q7.28,0,11.74-3.89T752,523.84v-4.63a.73.73,0,0,0-.83-.83H734.59a2,2,0,0,1-2-2V498.2a2,2,0,0,1,2-2h42.34a2,2,0,0,1,2,2V520.7a42.3,42.3,0,0,1-5.54,21.83,37.4,37.4,0,0,1-15.55,14.55q-10,5.13-23.24,5.13T711.35,556.92Z" transform="translate(2.27 1.72)" style="fill:#f18b8e"/><path d="M805.71,554.28a38,38,0,0,1-13.89-21.5,52.84,52.84,0,0,1-2-14.89,54.31,54.31,0,0,1,2.15-16,36.87,36.87,0,0,1,14.14-20.43q10.34-7.36,25.06-7.36,14.55,0,24.65,7.36a38.16,38.16,0,0,1,14.06,20.26,53.22,53.22,0,0,1,2.32,15.88,57.27,57.27,0,0,1-1.82,14.56q-3.47,13.89-13.89,22T831,562.22Q816.13,562.22,805.71,554.28ZM839,535.67a18.29,18.29,0,0,0,4.63-8.35,41.89,41.89,0,0,0,1-9.43,39.48,39.48,0,0,0-1.16-9.59,15.58,15.58,0,0,0-4.47-7.94,11.47,11.47,0,0,0-7.94-2.81q-9.59,0-12.57,10.75a40.06,40.06,0,0,0-1,9.59,41.89,41.89,0,0,0,1,9.43,16.8,16.8,0,0,0,4.55,8.35,11.2,11.2,0,0,0,8,3.06A10.91,10.91,0,0,0,839,535.67Z" transform="translate(2.27 1.72)" style="fill:#f18b8e"/><path d="M884.69,560.31a1.9,1.9,0,0,1-.58-1.41V447.09a2,2,0,0,1,2-2h23.49a2,2,0,0,1,2,2V558.91a2,2,0,0,1-2,2H886.1A1.91,1.91,0,0,1,884.69,560.31Z" transform="translate(2.27 1.72)" style="fill:#f18b8e"/><path d="M979.47,475.79a1.92,1.92,0,0,1,.58,1.41v18.52a2,2,0,0,1-2,2H962.51a.73.73,0,0,0-.83.83v60.37a2,2,0,0,1-2,2H936.21a2,2,0,0,1-2-2V498.54a.73.73,0,0,0-.83-.83h-9.26a2,2,0,0,1-2-2V477.2a2,2,0,0,1,2-2h9.26a.73.73,0,0,0,.83-.83v-4.47q0-9.76,3.47-15.3t11.08-7.77q7.61-2.23,20.67-1.74h6.78a2,2,0,0,1,2,2v15.05a2,2,0,0,1-2,2h-6.45q-4.47.33-6.29,2.15t-1.82,6.12v2a.73.73,0,0,0,.83.83h15.55A1.92,1.92,0,0,1,979.47,475.79Z" transform="translate(2.27 1.72)" style="fill:#f18b8e"/></svg>